<svg xmlns="http://www.w3.org/2000/svg" viewBox="0 0 992.05 992.05"><defs><style>.cls-1{fill:#03071e;}.cls-2{fill:#838eb2;}.cls-3{fill:#fff;}.cls-4{fill:#a1aed3;}.cls-5{fill:#545e7a;}.cls-6{fill:#45adf3;stroke:#7f3f98;}.cls-7{fill:none;stroke:#03071e;stroke-width:31.18px;}</style></defs><g id="Layer_1" data-name="Layer 1"><path class="cls-1" d="M742.13,392.39c-39.28-8.7-46.68-32.2-67.61-49.27,0,0,7.73-71.15-17.71-113.65C632,226.25,594,234.3,565.28,259.41a76.92,76.92,0,0,0-15.5.79c1.9-3.28,7.72-7.26,7.72-7.26-31.37-8.08-61.47,8.73-61.47,8.73h0s-30.11-16.81-61.48-8.73c0,0,5.82,4,7.72,7.26a76.92,76.92,0,0,0-15.5-.79C398,234.3,360,226.25,335.24,229.47c-25.43,42.5-17.71,113.65-17.71,113.65-20.92,17.07-28.33,40.57-67.61,49.27a238.57,238.57,0,0,0,24.79,43.4s-15.45-1.55-22.54-2.84c37,94,171,106.76,193.68,124.91C458.59,582.94,483.87,583,496,583h0c12.15,0,37.44,0,50.17-25.09C568.94,539.71,702.85,527,739.88,433c-7.08,1.29-22.54,2.84-22.54,2.84A238.57,238.57,0,0,0,742.13,392.39Z"/><path class="cls-2" d="M702.85,406.3c-23.18-8.59-34.34-37.35-57.74-51.08,10.95-47.44-4.51-98.74-4.51-98.74-31.33-.21-54.94,22.33-54.94,22.33s6.22,8.8,4.07,19.1c-42.12-23.2-76-2.58-76-2.58s2.15-9.44,5.37-14.59C505.6,284,496,295.33,496,295.33s-9.57-11.37-23.09-14.59c3.21,5.15,5.36,14.59,5.36,14.59s-33.86-20.62-76,2.58c-2.15-10.3,4.08-19.1,4.08-19.1s-23.61-22.54-54.95-22.33c0,0-15.45,51.3-4.51,98.74-23.39,13.73-34.55,42.49-57.73,51.08,10.94,30.05,33.05,45.07,33.05,45.07s-8.59,5.58-21.89,4.94c44.57,47.75,82.51,51.57,138.07,73.25a120.78,120.78,0,0,0,53.77,7.84c2.43-.2,3.82-.39,3.82-.39s1.39.19,3.81.39a120.76,120.76,0,0,0,53.77-7.84c55.57-21.68,93.51-25.5,138.08-73.25-13.31.64-21.9-4.94-21.9-4.94S691.9,436.35,702.85,406.3Z"/><path class="cls-3" d="M702.85,406.3c-17.09,4.76-37.14-9.15-37.14-9.15s-8.75-17.84-46.14-41.28a97,97,0,0,0-56.21,6.6s5.69-15.16,13.1-23.92C520.55,331.82,496,373.92,496,373.92s-24.53-42.1-80.44-35.37c7.41,8.76,13.1,23.92,13.1,23.92a97,97,0,0,0-56.21-6.6c-37.38,23.44-46.14,41.28-46.14,41.28s-20,13.91-37.13,9.15c10.94,30.05,33.05,45.07,33.05,45.07s-8.59,5.58-21.89,4.94c44.57,47.75,82.51,51.57,138.07,73.25a120.78,120.78,0,0,0,53.77,7.84c2.37-.2,3.73-.38,3.79-.38h0s1.42.18,3.84.38a120.76,120.76,0,0,0,53.77-7.84c55.57-21.68,93.51-25.5,138.08-73.25-13.31.64-21.9-4.94-21.9-4.94S691.9,436.35,702.85,406.3Z"/><path class="cls-4" d="M559.62,305.57s13.5-5.29,26.73-1.16c-37.87-20-80.44-.27-80.44-.27s.27-7.44,2.47-12.95c-4.13,2.2-12.35,14.38-12.35,14.38s-8.23-12.18-12.36-14.38c2.2,5.51,2.48,12.95,2.48,12.95s-42.57-19.74-80.44.27c13.22-4.13,26.72,1.16,26.72,1.16s-34.4,3.66-60.06,36.31c40.22-35.54,96.15-9.37,96.15-9.37s-5.79-11.84-15.15-16C476,317.64,496,340.78,496,340.78s20.07-23.14,42.66-24.25c-9.37,4.14-15.15,16-15.15,16s55.92-26.17,96.14,9.37C594,309.23,559.62,305.57,559.62,305.57Z"/><path class="cls-1" d="M651.66,431.12c-2.48-35.12-35.95-59.7-35.95-59.7s-44.63,6-72.73,32.43c-3.3-23.34,6.41-46.9,6.41-46.9s-16.53,7-25.62,31.2c-3.93-26.86-27.74-62.4-27.74-62.4s-23.82,35.54-27.74,62.4C459.19,364,442.67,357,442.67,357s9.71,23.56,6.4,46.9c-28.1-26.44-72.73-32.43-72.73-32.43s-33.47,24.58-35.95,59.7c4.76-5.57,16.33-9.29,16.33-9.29S335.53,458,345.24,492.64c28.05,16.2,56.86,22.74,93.2,36.92a121.83,121.83,0,0,0,16.38,5c-13.45-4.12-31.54-18-28.48-45.61,21.7-23.35,36.78-49.8,39.67-61.57,9,8,10.19,32.23,10.32,40.52-6.37,1.37-8.25,3.07-8.25,3.07s-5.79,15.7-4.55,28.1c9.3,8.88,24.08,13.84,32.5,13.84s23.19-5,32.49-13.84C529.76,486.7,524,471,524,471s-1.88-1.7-8.25-3.07c.13-8.29,1.3-32.52,10.32-40.52,2.89,11.77,18,38.22,39.67,61.57,3.06,27.57-15,41.49-28.48,45.61a120.94,120.94,0,0,0,16.38-5c36.35-14.18,65.15-20.72,93.21-36.92,9.71-34.69-11.48-70.81-11.48-70.81S646.91,425.55,651.66,431.12Z"/><path class="cls-3" d="M427.93,436.46a22.21,22.21,0,0,1-17.13-7.86c1.62,9.39,8.95,16.48,17.76,16.48,9.46,0,17.21-8.17,18-18.58A22,22,0,0,1,427.93,436.46Z"/><circle class="cls-3" cx="420.26" cy="414.82" r="6.51"/><path class="cls-5" d="M515.63,479.56s-6-2.29-19.6-2.29-19.6,2.29-19.6,2.29A101.41,101.41,0,0,0,474,490.29c8-4,16.17-4.43,22-4.43s14,.43,22,4.43A102.23,102.23,0,0,0,515.63,479.56Z"/><path class="cls-3" d="M564.13,436.46a22.2,22.2,0,0,0,17.12-7.86c-1.62,9.39-9,16.48-17.76,16.48-9.45,0-17.2-8.17-18-18.58A22,22,0,0,0,564.13,436.46Z"/><circle class="cls-3" cx="571.79" cy="414.82" r="6.51"/><path class="cls-3" d="M496,549.59s-20.86,4.95-33.88,0c7,13.84,20,15.08,33.88,15.08s26.85-1.24,33.87-15.08C516.88,554.54,496,549.59,496,549.59Z"/><path class="cls-3" d="M355.26,293.58a125.69,125.69,0,0,0,1.47,44.24,41.63,41.63,0,0,0,3-3.87c1.7-8.14,15.63-22.23,15.63-22.23V300.89l5.4-6-5.4-11.73L361,273.32Z"/><path class="cls-1" d="M395.39,300.81c-19.12-26.61-35.69-33-35.69-33s-3.52,10.19-4.44,25.75a86,86,0,0,1,6-11.25s6.05,2.71,13.22,9.72C362.41,296.67,357,310.21,357,310.21s11.63-4.78,15.3-1.91C361.14,317.22,359.7,334,359.7,334c7.33-11.63,22-20.08,27.56-22-4.3-5.89-8.6-6.69-8.6-6.69S387.42,299.85,395.39,300.81Z"/><path class="cls-3" d="M636.79,293.58a125.41,125.41,0,0,1-1.47,44.24,43.89,43.89,0,0,1-3-3.87c-1.69-8.14-15.62-22.23-15.62-22.23V300.89l-5.41-6,5.41-11.73,14.32-9.87Z"/><path class="cls-1" d="M596.66,300.81c19.12-26.61,35.69-33,35.69-33s3.53,10.19,4.44,25.75a86.68,86.68,0,0,0-6-11.25s-6.06,2.71-13.23,9.72c12.11,4.62,17.53,18.16,17.53,18.16s-11.63-4.78-15.3-1.91c11.16,8.92,12.59,25.65,12.59,25.65-7.33-11.63-22-20.08-27.56-22,4.3-5.89,8.6-6.69,8.6-6.69S604.63,299.85,596.66,300.81Z"/><path class="cls-4" d="M633.38,261.62s-18.84-.27-40.93,16.79c3.13,6.27,4.21,15.77,4.21,15.77S606.33,276.4,633.38,261.62Z"/><path class="cls-4" d="M360.27,261.62s18.84-.27,40.93,16.79c-3.14,6.27-4.22,15.77-4.22,15.77S387.32,276.4,360.27,261.62Z"/></g><g id="Layer_3" data-name="Layer 3"><path class="cls-6" d="M146.41,693.77l.17-.26q0-28.89,0-57.78,11.72-17.41,23.49-33.58,22.15-.14,44.31-.25-6.1,14.4-12.21,29.31-14.13.67-28.25,1.42,0,17.32-.07,34.66c1.95,1.46,3.89,2.91,5.84,4.35Q185.83,659.07,192,647q11.61,8.28,23.19,16l-.18.22q-.1,26-.22,52.08-11.67,17-23.29,35.21-22,5-43.87,10.76,5.9-17.43,11.82-34.24,14-2.85,28.08-5.46,0-17,.1-33.93c-1.89-1.39-3.77-2.78-5.66-4.19q-6.22,12.65-12.44,25.77Q158,701.76,146.41,693.77Z"/><path class="cls-6" d="M228.34,731.56l.18-.24q.18-36.69.37-73.39l-10.66.89q3.78-11.24,7.56-22.24l3.2-.17.07-14.08Q242,611.65,255,601.7q-.09,16.71-.19,33.42l13.52-.62q-3.54,10.37-7.06,20.93l-6.58.48-.33,56.35q5.57,3.93,11.13,7.78-8.85,10.9-17.69,22.36Q238.05,737.09,228.34,731.56Z"/><path class="cls-6" d="M337.49,640.38q0,31.71,0,63.39l10.83,7.05q-8.52,9.06-17.06,18.49-5.94-4.51-11.88-9.09-7.24,5.94-14.5,12.09-16.06-5.07-32.11-10.32,0-35.1.08-70.22,16.28-12.84,32.54-24.65Q321.41,633.94,337.49,640.38Zm-24.84,14.11q-7.63-3-15.27-6.08,0,28.41,0,56.81,7.72,2.58,15.45,5.12Q312.73,682.43,312.65,654.49Z"/><path class="cls-6" d="M392.28,731.44q.06-11.3.11-22.57-8.43,7.71-16.88,15.67-11.67-5.89-23.32-11.83.12-32.6.22-65.19Q368.7,636,385,625.17q16.08,6.52,32.2,12.89-.09,45.8-.19,91.57-7.37,9-14.75,18.22-24.9,2.11-49.75,5.35,5-9.56,9.94-18.92Q377.35,732.68,392.28,731.44Zm-15.37-33.08,15.51,5.42q0-26.47-.1-52.94l-15.48-6Q376.89,671.63,376.91,698.36Z"/><path class="cls-6" d="M459.1,624.28q15.5,5.76,31,11.56l-.36.33,1.07-.33q0,21.6,0,43.2-16.54,7.19-33.1,14.7,14.56,5,29.15,10.12-8.5,7.68-17,15.5-20.14-6.52-40.26-12.6.3-32.06.58-64.1Q444.65,633.33,459.1,624.28Zm-4.86,23.81-.09,39.46q6.27-2.7,12.53-5.35,0-14.9,0-29.8Z"/><path class="cls-6" d="M503.34,705.83l.18-.17,0-80.33q11.76-12.06,23.48-24.15l33.3,0q-4.34,11.65-8.66,23.22-10.33-.09-20.67-.16.06,34.4.13,68.77,12.34,5.21,24.71,10.67L538.11,721Q520.71,713.12,503.34,705.83Z"/><path class="cls-6" d="M596.83,724.86q-16.23-8-32.44-15.45-.12-32.1-.23-64.18c10.8-6.68,21.58-13.39,32.36-20.22q16.15,7.05,32.33,14.49l.39,66.79Q613.06,715.65,596.83,724.86Zm7.77-18.78q-.15-27.52-.29-55-7.77-3.51-15.54-6.92.12,27.25.25,54.51Q596.81,702.29,604.6,706.08Z"/><path class="cls-6" d="M706.6,712.83q-16.12,9.43-32.27,18.41-16.17-9.51-32.38-18.19.06-34.17.12-68.36Q651,638.92,660,633q-12.16-8.25-24.32-16.1,8.67-8.85,17.34-18c17.87,11.71,35.76,24,53.63,37.15Q706.62,674.47,706.6,712.83Zm-40.18-75.5q0,32.82.07,65.63,7.77,4.2,15.55,8.59L682,648.34Q674.2,642.73,666.42,637.33Z"/><path class="cls-6" d="M748.21,629.4q15.52,7.65,31,16l-.35.39,1.07-.34q.11,27.13.22,54.26-16.35,6.57-32.72,12.64,14.49,8.49,29,17.77-8.37,7.95-16.74,15.56-20-12.45-40-23.44,0-36.59-.1-73.21Q733.88,639.54,748.21,629.4Zm-4.64,28.06.27,46.89q6.2-2.18,12.39-4.41-.09-18-.19-36.11Q749.82,660.59,743.57,657.46Z"/><path class="cls-6" d="M817,655.31q6.36-10.77,12.74-22,7.4,14,14.74,28.6-7.35,13.14-14.67,25.66-6.39-12.47-12.79-24.43-.12,29.75-.23,59.45Q828.41,731.47,840,741q-8.19,9.87-16.35,19.24-15.44-13.15-30.93-25.09,0-48.48,0-97,12.17.72,24.33,1.49Z"/><path class="cls-7" d="M146.41,715.54l.17-.26q0-28.89,0-57.78,11.72-17.41,23.49-33.58,22.15-.13,44.31-.25-6.1,14.4-12.21,29.31-14.13.67-28.25,1.42,0,17.33-.07,34.66c1.95,1.46,3.89,2.91,5.84,4.35q6.13-12.57,12.3-24.67,11.61,8.28,23.19,16L215,685q-.1,26-.22,52.08-11.67,17-23.29,35.21-22,5-43.87,10.76,5.9-17.43,11.82-34.24,14-2.85,28.08-5.46,0-17,.1-33.93c-1.89-1.39-3.77-2.78-5.66-4.19q-6.22,12.64-12.44,25.77Q158,723.53,146.41,715.54Z"/><path class="cls-7" d="M228.34,753.33l.18-.24q.18-36.69.37-73.39l-10.66.89q3.78-11.24,7.56-22.24l3.2-.17.07-14.08Q242,633.42,255,623.47q-.09,16.71-.19,33.42l13.52-.62q-3.54,10.38-7.06,20.93l-6.58.48L254.33,734q5.57,3.93,11.13,7.78-8.85,10.91-17.69,22.36Q238.05,758.86,228.34,753.33Z"/><path class="cls-7" d="M337.49,662.15q0,31.71,0,63.39l10.83,7.05q-8.52,9.06-17.06,18.49-5.94-4.51-11.88-9.09-7.24,5.94-14.5,12.09-16.06-5.07-32.11-10.32,0-35.1.08-70.22,16.28-12.84,32.54-24.65Q321.41,655.72,337.49,662.15Zm-24.84,14.11q-7.63-3-15.27-6.08,0,28.41,0,56.81,7.72,2.58,15.45,5.12Q312.73,704.2,312.65,676.26Z"/><path class="cls-7" d="M392.28,753.21q.06-11.3.11-22.57-8.43,7.71-16.88,15.67-11.67-5.89-23.32-11.83.12-32.58.22-65.19Q368.7,657.77,385,646.94q16.08,6.52,32.2,12.89-.09,45.79-.19,91.57-7.37,9-14.75,18.22-24.9,2.11-49.75,5.35,5-9.56,9.94-18.92Q377.35,754.45,392.28,753.21Zm-15.37-33.08,15.51,5.42q0-26.47-.1-52.94l-15.48-6Q376.89,693.4,376.91,720.13Z"/><path class="cls-7" d="M459.1,646.05q15.5,5.76,31,11.56l-.36.33,1.07-.33q0,21.6,0,43.2-16.54,7.19-33.1,14.7,14.56,5,29.15,10.12-8.5,7.68-17,15.5-20.14-6.52-40.26-12.6.3-32.06.58-64.1Q444.65,655.1,459.1,646.05Zm-4.86,23.81-.09,39.46q6.27-2.7,12.53-5.35,0-14.9,0-29.8Z"/><path class="cls-7" d="M503.34,727.6l.18-.17,0-80.33Q515.25,635,527,623l33.3,0q-4.34,11.65-8.66,23.22-10.33-.09-20.67-.16.06,34.4.13,68.77,12.34,5.21,24.71,10.67l-17.67,17.25Q520.71,734.89,503.34,727.6Z"/><path class="cls-7" d="M596.83,746.63q-16.23-8-32.44-15.45-.12-32.1-.23-64.18c10.8-6.68,21.58-13.39,32.36-20.22q16.15,7.05,32.33,14.49l.39,66.79Q613.06,737.42,596.83,746.63Zm7.77-18.78q-.15-27.52-.29-55-7.77-3.51-15.54-6.92.12,27.25.25,54.51Q596.81,724.06,604.6,727.85Z"/><path class="cls-7" d="M706.6,734.6Q690.48,744,674.33,753,658.16,743.5,642,734.82q.06-34.17.12-68.36,9-5.78,17.91-11.71-12.16-8.25-24.32-16.1,8.67-8.85,17.34-18c17.87,11.71,35.76,24,53.63,37.15Q706.62,696.24,706.6,734.6Zm-40.18-75.5q0,32.82.07,65.63,7.77,4.2,15.55,8.59L682,670.11Q674.2,664.5,666.42,659.1Z"/><path class="cls-7" d="M748.21,651.17q15.52,7.65,31,16l-.35.39,1.07-.34q.11,27.13.22,54.26Q763.8,728,747.43,734.11q14.49,8.49,29,17.77-8.37,7.95-16.74,15.56-20-12.45-40-23.44,0-36.59-.1-73.21Q733.88,661.31,748.21,651.17Zm-4.64,28.06.27,46.89q6.2-2.18,12.39-4.41-.09-18-.19-36.11Q749.82,682.36,743.57,679.23Z"/><path class="cls-7" d="M817,677.09q6.36-10.79,12.74-22,7.4,14,14.74,28.6-7.35,13.14-14.67,25.66-6.39-12.45-12.79-24.43-.12,29.75-.23,59.45,11.58,8.86,23.12,18.39-8.19,9.87-16.35,19.24-15.44-13.15-30.93-25.09,0-48.48,0-97,12.17.72,24.33,1.49Z"/><path class="cls-7" d="M146.41,693.77l.17-.26q0-28.89,0-57.78,11.72-17.41,23.49-33.58,22.15-.14,44.31-.25-6.1,14.4-12.21,29.31-14.13.67-28.25,1.42,0,17.32-.07,34.66c1.95,1.46,3.89,2.91,5.84,4.35Q185.83,659.07,192,647q11.61,8.28,23.19,16l-.18.22q-.1,26-.22,52.08-11.67,17-23.29,35.21-22,5-43.87,10.76,5.9-17.43,11.82-34.24,14-2.85,28.08-5.46,0-17,.1-33.93c-1.89-1.39-3.77-2.78-5.66-4.19q-6.22,12.65-12.44,25.77Q158,701.76,146.41,693.77Z"/><path class="cls-7" d="M228.34,731.56l.18-.24q.18-36.69.37-73.39l-10.66.89q3.78-11.24,7.56-22.24l3.2-.17.07-14.08Q242,611.65,255,601.7q-.09,16.71-.19,33.42l13.52-.62q-3.54,10.37-7.06,20.93l-6.58.48-.33,56.35q5.57,3.93,11.13,7.78-8.85,10.9-17.69,22.36Q238.05,737.09,228.34,731.56Z"/><path class="cls-7" d="M337.49,640.38q0,31.71,0,63.39l10.83,7.05q-8.52,9.06-17.06,18.49-5.94-4.51-11.88-9.09-7.24,5.94-14.5,12.09-16.06-5.07-32.11-10.32,0-35.1.08-70.22,16.28-12.84,32.54-24.65Q321.41,633.94,337.49,640.38Zm-24.84,14.11q-7.63-3-15.27-6.08,0,28.41,0,56.81,7.72,2.58,15.45,5.12Q312.73,682.43,312.65,654.49Z"/><path class="cls-7" d="M392.28,731.44q.06-11.3.11-22.57-8.43,7.71-16.88,15.67-11.67-5.89-23.32-11.83.12-32.6.22-65.19Q368.7,636,385,625.17q16.08,6.52,32.2,12.89-.09,45.8-.19,91.57-7.37,9-14.75,18.22-24.9,2.11-49.75,5.35,5-9.56,9.94-18.92Q377.35,732.68,392.28,731.44Zm-15.37-33.08,15.51,5.42q0-26.47-.1-52.94l-15.48-6Q376.89,671.63,376.91,698.36Z"/><path class="cls-7" d="M459.1,624.28q15.5,5.76,31,11.56l-.36.33,1.07-.33q0,21.6,0,43.2-16.54,7.19-33.1,14.7,14.56,5,29.15,10.12-8.5,7.68-17,15.5-20.14-6.52-40.26-12.6.3-32.06.58-64.1Q444.65,633.33,459.1,624.28Zm-4.86,23.81-.09,39.46q6.27-2.7,12.53-5.35,0-14.9,0-29.8Z"/><path class="cls-7" d="M503.34,705.83l.18-.17,0-80.33q11.76-12.06,23.48-24.15l33.3,0q-4.34,11.65-8.66,23.22-10.33-.09-20.67-.16.06,34.4.13,68.77,12.34,5.21,24.71,10.67L538.11,721Q520.71,713.12,503.34,705.83Z"/><path class="cls-7" d="M596.83,724.86q-16.23-8-32.44-15.45-.12-32.1-.23-64.18c10.8-6.68,21.58-13.39,32.36-20.22q16.15,7.05,32.33,14.49l.39,66.79Q613.06,715.65,596.83,724.86Zm7.77-18.78q-.15-27.52-.29-55-7.77-3.51-15.54-6.92.12,27.25.25,54.51Q596.81,702.29,604.6,706.08Z"/><path class="cls-7" d="M706.6,712.83q-16.12,9.43-32.27,18.41-16.17-9.51-32.38-18.19.06-34.17.12-68.36Q651,638.92,660,633q-12.16-8.25-24.32-16.1,8.67-8.85,17.34-18c17.87,11.71,35.76,24,53.63,37.15Q706.62,674.47,706.6,712.83Zm-40.18-75.5q0,32.82.07,65.63,7.77,4.2,15.55,8.59L682,648.34Q674.2,642.73,666.42,637.33Z"/><path class="cls-7" d="M748.21,629.4q15.52,7.65,31,16l-.35.39,1.07-.34q.11,27.13.22,54.26-16.35,6.57-32.72,12.64,14.49,8.49,29,17.77-8.37,7.95-16.74,15.56-20-12.45-40-23.44,0-36.59-.1-73.21Q733.88,639.54,748.21,629.4Zm-4.64,28.06.27,46.89q6.2-2.18,12.39-4.41-.09-18-.19-36.11Q749.82,660.59,743.57,657.46Z"/><path class="cls-7" d="M817,655.31q6.36-10.77,12.74-22,7.4,14,14.74,28.6-7.35,13.14-14.67,25.66-6.39-12.47-12.79-24.43-.12,29.75-.23,59.45Q828.41,731.47,840,741q-8.19,9.87-16.35,19.24-15.44-13.15-30.93-25.09,0-48.48,0-97,12.17.72,24.33,1.49Z"/><path class="cls-3" d="M146.41,693.77l.17-.26q0-28.89,0-57.78,11.72-17.41,23.49-33.58,22.15-.14,44.31-.25-6.1,14.4-12.21,29.31-14.13.67-28.25,1.42,0,17.32-.07,34.66c1.95,1.46,3.89,2.91,5.84,4.35Q185.83,659.07,192,647q11.61,8.28,23.19,16l-.18.22q-.1,26-.22,52.08-11.67,17-23.29,35.21-22,5-43.87,10.76,5.9-17.43,11.82-34.24,14-2.85,28.08-5.46,0-17,.1-33.93c-1.89-1.39-3.77-2.78-5.66-4.19q-6.22,12.65-12.44,25.77Q158,701.76,146.41,693.77Z"/><path class="cls-3" d="M228.34,731.56l.18-.24q.18-36.69.37-73.39l-10.66.89q3.78-11.24,7.56-22.24l3.2-.17.07-14.08Q242,611.65,255,601.7q-.09,16.71-.19,33.42l13.52-.62q-3.54,10.37-7.06,20.93l-6.58.48-.33,56.35q5.57,3.93,11.13,7.78-8.85,10.9-17.69,22.36Q238.05,737.09,228.34,731.56Z"/><path class="cls-3" d="M337.49,640.38q0,31.71,0,63.39l10.83,7.05q-8.52,9.06-17.06,18.49-5.94-4.51-11.88-9.09-7.24,5.94-14.5,12.09-16.06-5.07-32.11-10.32,0-35.1.08-70.22,16.28-12.84,32.54-24.65Q321.41,633.94,337.49,640.38Zm-24.84,14.11q-7.63-3-15.27-6.08,0,28.41,0,56.81,7.72,2.58,15.45,5.12Q312.73,682.43,312.65,654.49Z"/><path class="cls-3" d="M392.28,731.44q.06-11.3.11-22.57-8.43,7.71-16.88,15.67-11.67-5.89-23.32-11.83.12-32.6.22-65.19Q368.7,636,385,625.17q16.08,6.52,32.2,12.89-.09,45.8-.19,91.57-7.37,9-14.75,18.22-24.9,2.11-49.75,5.35,5-9.56,9.94-18.92Q377.35,732.68,392.28,731.44Zm-15.37-33.08,15.51,5.42q0-26.47-.1-52.94l-15.48-6Q376.89,671.63,376.91,698.36Z"/><path class="cls-3" d="M459.1,624.28q15.5,5.76,31,11.56l-.36.33,1.07-.33q0,21.6,0,43.2-16.54,7.19-33.1,14.7,14.56,5,29.15,10.12-8.5,7.68-17,15.5-20.14-6.52-40.26-12.6.3-32.06.58-64.1Q444.65,633.33,459.1,624.28Zm-4.86,23.81-.09,39.46q6.27-2.7,12.53-5.35,0-14.9,0-29.8Z"/><path class="cls-3" d="M503.34,705.83l.18-.17,0-80.33q11.76-12.06,23.48-24.15l33.3,0q-4.34,11.65-8.66,23.22-10.33-.09-20.67-.16.06,34.4.13,68.77,12.34,5.21,24.71,10.67L538.11,721Q520.71,713.12,503.34,705.83Z"/><path class="cls-3" d="M596.83,724.86q-16.23-8-32.44-15.45-.12-32.1-.23-64.18c10.8-6.68,21.58-13.39,32.36-20.22q16.15,7.05,32.33,14.49l.39,66.79Q613.06,715.65,596.83,724.86Zm7.77-18.78q-.15-27.52-.29-55-7.77-3.51-15.54-6.92.12,27.25.25,54.51Q596.81,702.29,604.6,706.08Z"/><path class="cls-3" d="M706.6,712.83q-16.12,9.43-32.27,18.41-16.17-9.51-32.38-18.19.06-34.17.12-68.36Q651,638.92,660,633q-12.16-8.25-24.32-16.1,8.67-8.85,17.34-18c17.87,11.71,35.76,24,53.63,37.15Q706.62,674.47,706.6,712.83Zm-40.18-75.5q0,32.82.07,65.63,7.77,4.2,15.55,8.59L682,648.34Q674.2,642.73,666.42,637.33Z"/><path class="cls-3" d="M748.21,629.4q15.52,7.65,31,16l-.35.39,1.07-.34q.11,27.13.22,54.26-16.35,6.57-32.72,12.64,14.49,8.49,29,17.77-8.37,7.95-16.74,15.56-20-12.45-40-23.44,0-36.59-.1-73.21Q733.88,639.54,748.21,629.4Zm-4.64,28.06.27,46.89q6.2-2.18,12.39-4.41-.09-18-.19-36.11Q749.82,660.59,743.57,657.46Z"/><path class="cls-3" d="M817,655.31q6.36-10.77,12.74-22,7.4,14,14.74,28.6-7.35,13.14-14.67,25.66-6.39-12.47-12.79-24.43-.12,29.75-.23,59.45Q828.41,731.47,840,741q-8.19,9.87-16.35,19.24-15.44-13.15-30.93-25.09,0-48.48,0-97,12.17.72,24.33,1.49Z"/><path class="cls-1" d="M180.42,753.72c-4.55-1.55-11.66-1-12.56-1l-29.61-24.06s-22.32,4.34-32.48,24.62,4,39.49,8.68,43.48,8,.3,23.6,4.58,19.93,11.16,41.55,0,27.26-40.79,30.5-53.59C210.1,747.8,193,758,180.42,753.72Z"/><path class="cls-5" d="M119.2,763.25c.64,10.59,6,20.1,11,20.54s21.49,5.67,29.06,8.37,26.18-7.43,33.37-26.06c-9.71,4.09-14.08-1-21.74-1.26-10.14-.39-16.83,8.58-16.06,12.66-6.7-12.68-14.26-12-21.35-7.64a17.65,17.65,0,0,1,3.44-9.84c5.73-6.37,16.32-5.2,16.32-5.2s-6.52-5.27-14.86-12.05C127.46,746.74,120.84,755.53,119.2,763.25Z"/><path class="cls-1" d="M162.26,721.43c-4.38-2-11.5-2.15-12.4-2.18l-27.12-26.84S100.1,694.55,88,713.75s.15,39.69,4.41,44.12,8,1.07,23,6.85,18.75,13.06,41.35,4.08,31.11-37.93,35.59-50.35C192.38,718.45,174.36,726.91,162.26,721.43Z"/><path class="cls-5" d="M100.4,725c-.4,10.6,4,20.58,8.9,21.5s20.84,7.75,28.11,11.17,26.78-4.84,35.75-22.67c-10.06,3.11-13.91-2.34-21.51-3.38-10.06-1.38-17.59,6.9-17.22,11-5.43-13.27-13-13.38-20.5-9.68a17.64,17.64,0,0,1,4.39-9.46c6.32-5.79,16.74-3.58,16.74-3.58l-13.61-13.45C110.23,709.32,102.78,717.43,100.4,725Z"/><path class="cls-1" d="M143.19,676c-4-2.69-9.46,2.41-10.35,2.23l-22.28-31s-22.68-1.65-37.8,15.27-6.45,39.17-3,44.24,7.67,2.38,21.58,10.59,16.32,16,40.1,10.88,37-32.23,43.46-43.74C174.91,684.49,154.22,683.4,143.19,676Z"/><path class="cls-5" d="M83.13,675.63c-2.15,10.38.5,21,5.2,22.68S107.6,709.41,114.2,714s27.2-.33,39-16.43c-10.43,1.41-13.33-4.61-20.64-6.9-9.7-3-18.5,3.88-18.82,8-3.15-14-10.61-15.36-18.61-13a17.72,17.72,0,0,1,5.9-8.6c7.19-4.65,17.11-.75,17.11-.75s-4.92-6.79-11.19-15.51C95.42,661.85,86.72,668.61,83.13,675.63Z"/><path class="cls-1" d="M162,641.25c-2.44-4.49-8.36-9.2-9.11-9.8l-.72-41.75s-22.74-12-45.29-3.51-28.16,34.65-27.39,41.13,6,6,15.11,20.57,7.51,23.07,32.4,30,50.66-12.18,62.42-19.82C189.42,658,168.74,653.65,162,641.25Z"/><path class="cls-5" d="M107.36,604.57c-7.13,8.72-9.83,20-6.25,23.92s12.68,19.92,16.65,27.48,25.77,13.06,44.8,3.71c-10.51-3.81-10.28-10.9-16-16.65-7.64-7.62-19.32-5.43-21.66-1.69,3.91-14.73-2.44-19.68-11.15-21.35a18.73,18.73,0,0,1,9.78-5.2c9.06-.84,16.47,7.7,16.47,7.7s-1.29-8.81-2.91-20.11C125.71,597.64,114.2,599.73,107.36,604.57Z"/><path class="cls-1" d="M812.13,753.83c4.55-1.56,11.66-1.05,12.55-1l29.55-24.16s22.33,4.28,32.55,24.53-3.9,39.5-8.56,43.51-8,.32-23.58,4.64-19.9,11.22-41.55.14S785.71,760.79,782.43,748C782.43,748,799.56,758.14,812.13,753.83Z"/><path class="cls-5" d="M873.38,763.19c-.61,10.59-5.91,20.12-10.9,20.57s-21.48,5.73-29,8.45-26.2-7.35-33.44-26c9.72,4.06,14.07-1,21.73-1.32,10.15-.42,16.86,8.53,16.1,12.61,6.66-12.7,14.22-12.09,21.33-7.7a17.71,17.71,0,0,0-3.47-9.83c-5.75-6.36-16.33-5.15-16.33-5.15s6.5-5.29,14.82-12.09C865.07,746.7,871.72,755.48,873.38,763.19Z"/><path class="cls-1" d="M830.2,721.5c4.37-2,11.49-2.19,12.4-2.22l27-26.92s22.65,2.08,34.79,21.24,0,39.69-4.27,44.13-7.95,1.1-23,6.92-18.71,13.11-41.34,4.2S804.59,731,800.07,718.6C800.07,718.6,818.11,727,830.2,721.5Z"/><path class="cls-5" d="M892.07,724.84c.42,10.59-3.92,20.59-8.84,21.53s-20.82,7.8-28.08,11.25-26.79-4.77-35.81-22.58c10.07,3.09,13.9-2.37,21.5-3.44,10-1.4,17.61,6.85,17.25,11,5.39-13.29,13-13.42,20.48-9.75a17.69,17.69,0,0,0-4.42-9.44c-6.34-5.77-16.76-3.54-16.76-3.54s6-5.9,13.58-13.48C882.19,709.24,889.66,717.32,892.07,724.84Z"/><path class="cls-1" d="M851.43,675c4-2.69,7.18,3.42,8.06,3.25l22.2-31s22.68-1.72,37.84,15.16,6.56,39.15,3.11,44.23S915,709,901.1,717.21s-16.28,16-40.07,11S824,696.08,817.45,684.59C817.45,684.59,840.43,682.4,851.43,675Z"/><path class="cls-5" d="M909.2,675.47c2.18,10.38-.44,20.95-5.14,22.7s-19.23,11.15-25.82,15.75-27.2-.24-39.06-16.31c10.44,1.38,13.31-4.65,20.63-7,9.68-3.06,18.5,3.83,18.83,8,3.11-14,10.57-15.4,18.58-13a17.7,17.7,0,0,0-5.93-8.58c-7.2-4.63-17.11-.7-17.11-.7s4.9-6.81,11.15-15.55C896.87,661.73,905.58,668.46,909.2,675.47Z"/><path class="cls-1" d="M830.23,641.31c2.43-4.49,8.33-9.22,9.08-9.82l.6-41.75s22.71-12.09,45.28-3.65,28.26,34.58,27.51,41.06-6,6-15.05,20.61-7.44,23.1-32.32,30.06-50.69-12-62.47-19.65C802.86,658.17,823.53,653.73,830.23,641.31Z"/><path class="cls-5" d="M884.77,604.48c7.15,8.7,9.88,19.95,6.31,23.9s-12.62,20-16.57,27.52-25.73,13.14-44.79,3.84c10.5-3.83,10.25-10.92,16-16.69,7.61-7.64,19.3-5.49,21.65-1.76-4-14.71,2.38-19.68,11.09-21.38a18.77,18.77,0,0,0-9.79-5.17c-9.06-.81-16.46,7.76-16.46,7.76s1.27-8.82,2.86-20.12C866.4,597.6,877.91,599.66,884.77,604.48Z"/></g></svg>